# xmcd CD database file
#
# Track frame offsets:
#	150
#	16465
#	37357
#	53692
#
# Disc length: 991 seconds
#
# Revision: 0
# Processed by: cddbd v1.5PL3 Copyright (c) Steve Scherf et al.
# Submitted via: CDex 1.50
#
DISCID=3003dd04
DTITLE=笠原弘子 - アッセンブル・インサート
DYEAR=1900
DGENRE=Anime
TTITLE0=アッセンブル・インサート
TTITLE1=苺の帽子
TTITLE2=アッセンブル・インサート (カラオケ)
TTITLE3=苺の帽子 (カラオケ)
EXTD=
EXTT0=
EXTT1=
EXTT2=
EXTT3=
PLAYORDER=
